<mxfile host="app.diagrams.net" modified="2020-08-09T03:29:54.572Z" agent="5.0 (Windows NT 10.0; Win64; x64) AppleWebKit/537.36 (KHTML, like Gecko) Chrome/84.0.4147.105 Safari/537.36" etag="SkiiT3YLuzaKgDWvJbY2" version="13.5.9" type="github">
  <diagram id="sZLGxKC214xTVPhTnq_w" name="Page-1">
    <mxGraphModel dx="1209" dy="675" grid="1" gridSize="10" guides="1" tooltips="1" connect="1" arrows="1" fold="1" page="1" pageScale="1" pageWidth="850" pageHeight="1100" math="0" shadow="0">
      <root>
        <mxCell id="0" />
        <mxCell id="1" parent="0" />
        <mxCell id="Q7vCjVtK6RkL7Dx88FIn-1" value="A1.&amp;nbsp;" style="rounded=1;whiteSpace=wrap;html=1;" vertex="1" parent="1">
          <mxGeometry x="40" y="40" width="120" height="60" as="geometry" />
        </mxCell>
      </root>
    </mxGraphModel>
  </diagram>
</mxfile>
